<svg width="18" height="18" viewBox="0 0 18 18" fill="none" xmlns="http://www.w3.org/2000/svg">
<g clip-path="url(#clip0)">
<path d="M8.47338 0.0151127C6.43301 0.132218 4.5208 0.927733 2.99888 2.29306C2.87559 2.40366 3.10639 2.86959 2.98837 2.98764C2.85664 3.11937 2.37792 2.90292 2.25543 3.04119C0.913553 4.55603 0.131854 6.45145 0.0158382 8.47265C0.00581865 8.64755 0.352319 8.8234 0.352319 9.00003C0.352319 9.17665 0.00581865 9.3525 0.0158382 9.52741C0.132381 11.5582 0.921006 13.4621 2.27459 14.9805C2.39117 15.1112 2.74881 15.2754 2.74881 15.2754C2.74881 15.2754 2.88965 15.6097 3.02047 15.7263C4.53887 17.0798 6.44265 17.8683 8.47338 17.9849C8.64828 17.9949 9.00076 17.7799 9.00076 17.7799L9.35235 9.33893L9.0068 0.160589C9.0068 0.160589 8.64828 0.00509313 8.47338 0.0151127Z" fill="#FDCB02"/>
<path d="M9 0.344302V15.8112C9 15.8112 9.35244 17.9949 9.52734 17.9849C11.5655 17.8679 13.4757 17.074 14.9968 15.7114C15.1219 15.5994 14.8927 15.132 15.0124 15.0124C15.1425 14.8822 15.6197 15.1004 15.7408 14.9639C17.0854 13.4482 17.8687 11.5508 17.9849 9.52735C17.9949 9.35242 17.2968 9.17657 17.2968 8.99994C17.2968 8.82332 17.9949 8.64746 17.9849 8.47256C17.8683 6.44176 17.0797 4.53791 15.7261 3.01952C15.6096 2.88877 15.1962 2.79487 15.1962 2.79487C15.1962 2.79487 15.1111 2.39029 14.9803 2.27368C13.4618 0.920231 11.558 0.132064 9.52731 0.0155562C9.37121 0.0065914 9 0.344302 9 0.344302Z" fill="#FDAE02"/>
<path d="M5.12896 4.38455L2.99715 2.29346C2.87382 2.40406 2.75281 2.51807 2.63475 2.63613C2.50299 2.76789 2.37639 2.90338 2.25391 3.04169L4.38322 5.13032L5.12896 4.38455Z" fill="#FDAE02"/>
<path d="M8.47266 15V17.9843C8.64759 17.9944 8.82334 18 9 18H9.00004L9.3516 16.8141L9.00004 15H8.47266Z" fill="#FDAE02"/>
<path d="M9.52731 15H9V18C9.17663 18 9.35237 17.9943 9.52731 17.9843V15Z" fill="#FD8C02"/>
<path d="M8.47266 0.0157148V3.00002H9.00004L9.3516 1.29909L9.00004 0C9.00004 0 8.64759 0.00566016 8.47266 0.0157148Z" fill="#FDAE02"/>
<path d="M9.52731 0.0157148C9.35237 0.00566016 9.17663 0 9 0V3.00002H9.52731V0.0157148Z" fill="#FD8C02"/>
<path d="M12.8672 13.6156L14.9939 15.7112C15.119 15.5992 15.2417 15.4837 15.3614 15.3641C15.4916 15.2339 15.6167 15.1001 15.7378 14.9636L13.613 12.8699L12.8672 13.6156Z" fill="#FD8C02"/>
<path d="M15 9.52734H17.9843C17.9943 9.35241 18 9.17666 18 9C18 8.82334 17.9943 8.64759 17.9843 8.47266H15V9.52734Z" fill="#FD8C02"/>
<path d="M3.00002 8.47266H0.0157148C0.00566016 8.64759 0 8.82334 0 9C0 9.17666 0.00566016 9.35241 0.0157148 9.52734H3.00002V8.47266Z" fill="#FDAE02"/>
<path d="M13.6169 5.13019L15.7271 3.01997C15.6105 2.88919 15.4902 2.76091 15.3653 2.63596C15.2404 2.51105 15.1121 2.39078 14.9813 2.27417L12.8711 4.38435L13.6169 5.13019Z" fill="#FD8C02"/>
<path d="M4.38366 12.8699L2.27344 14.9801C2.39002 15.1109 2.51029 15.2392 2.63523 15.3641C2.76014 15.489 2.88843 15.6093 3.01924 15.7259L5.12946 13.6157L4.38366 12.8699Z" fill="#FDAE02"/>
<path d="M8.99999 2.47363C5.40079 2.47363 2.47266 5.40177 2.47266 9.00096C2.47266 12.6002 5.40079 15.5283 8.99999 15.5283H9.00003L9.35159 9.30671L9.00003 2.47363H8.99999Z" fill="#FFDF8E"/>
<path d="M15.5273 9.00001C15.5273 5.40082 12.5992 2.47269 9 2.47266V15.5273C12.5992 15.5273 15.5273 12.5992 15.5273 9.00001Z" fill="#FFD664"/>
<path d="M8.47266 5.22729V6.72731H9L9.35156 6.02513L9 5.22729H8.47266Z" fill="#FDAE02"/>
<path d="M9 5.22729H9.52734V6.72731H9V5.22729Z" fill="#FD8C02"/>
<path d="M7.67829 12.7728L7.8456 7.8516C7.26531 7.26705 6.35708 7.13697 5.62505 7.56669C4.79547 8.0536 4.48472 9.1079 4.91757 9.96691L6.33145 12.7728H7.67829Z" fill="#FDAE02"/>
<path d="M12.3729 7.56669C11.6408 7.13698 10.7326 7.26705 10.1523 7.85156L10.3578 12.7727H11.6664L13.0803 9.96688C13.5132 9.10787 13.2024 8.05357 12.3729 7.56669Z" fill="#FD8C02"/>
<path d="M7.67791 12.7728H9.01004L9.35024 9.56321L8.99868 6.19995C8.37618 6.19995 7.7897 6.47347 7.38963 6.9504C6.98955 7.42729 6.82217 8.0524 6.93088 8.66813L7.67791 12.7728Z" fill="#FDCB02"/>
<path d="M10.359 12.7728L11.0683 8.66539C11.1765 8.05237 11.0092 7.42726 10.609 6.95036C10.209 6.47347 9.62252 6.19995 9 6.19995V12.7728H10.359V12.7728Z" fill="#FDAE02"/>
</g>
<defs>
<clipPath id="clip0">
<rect width="18" height="18" fill="white"/>
</clipPath>
</defs>
</svg>
