<svg width="18" height="18" viewBox="0 0 18 18" fill="none" xmlns="http://www.w3.org/2000/svg">
<g clip-path="url(#clip0)">
<path d="M8.47338 0.0150821C6.43301 0.132188 4.5208 0.927703 2.99888 2.29303C2.87559 2.40363 3.10639 2.86956 2.98837 2.98761C2.85664 3.11934 2.37792 2.90289 2.25543 3.04116C0.913553 4.556 0.131854 6.45142 0.0158382 8.47262C0.00581865 8.64752 0.352319 8.82337 0.352319 9C0.352319 9.17662 0.00581865 9.35247 0.0158382 9.52738C0.132381 11.5582 0.921006 13.462 2.27459 14.9804C2.39117 15.1112 2.74881 15.2753 2.74881 15.2753C2.74881 15.2753 2.88965 15.6096 3.02047 15.7262C4.53887 17.0797 6.44265 17.8683 8.47338 17.9848C8.64828 17.9949 9.00076 17.7799 9.00076 17.7799L9.35235 9.3389L9.0068 0.160559C9.0068 0.160559 8.64828 0.00506261 8.47338 0.0150821Z" fill="#FDCB02"/>
<path d="M9 0.344348V15.8113C9 15.8113 9.35244 17.995 9.52734 17.9849C11.5655 17.8679 13.4757 17.074 14.9968 15.7115C15.1219 15.5995 14.8927 15.132 15.0124 15.0124C15.1425 14.8823 15.6197 15.1004 15.7408 14.9639C17.0854 13.4482 17.8687 11.5509 17.9849 9.5274C17.9949 9.35246 17.2968 9.17661 17.2968 8.99999C17.2968 8.82336 17.9949 8.64751 17.9849 8.47261C17.8683 6.44181 17.0797 4.53796 15.7261 3.01956C15.6096 2.88881 15.1962 2.79491 15.1962 2.79491C15.1962 2.79491 15.1111 2.39033 14.9803 2.27372C13.4618 0.920277 11.558 0.13211 9.52731 0.015602C9.37121 0.00663718 9 0.344348 9 0.344348Z" fill="#FDAE02"/>
<path d="M5.12896 4.38447L2.99715 2.29338C2.87382 2.40398 2.75281 2.51799 2.63475 2.63605C2.50299 2.76781 2.37639 2.90331 2.25391 3.04161L4.38322 5.13024L5.12896 4.38447Z" fill="#FDAE02"/>
<path d="M8.47266 15V17.9843C8.64759 17.9944 8.82334 18 9 18H9.00004L9.3516 16.8141L9.00004 15H8.47266Z" fill="#FDAE02"/>
<path d="M9.52731 15H9V18C9.17663 18 9.35237 17.9943 9.52731 17.9843V15Z" fill="#FD8C02"/>
<path d="M8.47266 0.0157148V3.00002H9.00004L9.3516 1.29909L9.00004 0C9.00004 0 8.64759 0.00566016 8.47266 0.0157148Z" fill="#FDAE02"/>
<path d="M9.52731 0.0157148C9.35237 0.00566016 9.17663 0 9 0V3.00002H9.52731V0.0157148Z" fill="#FD8C02"/>
<path d="M12.8672 13.6155L14.9939 15.7111C15.119 15.5991 15.2417 15.4836 15.3614 15.3639C15.4916 15.2338 15.6167 15.1 15.7378 14.9634L13.613 12.8698L12.8672 13.6155Z" fill="#FD8C02"/>
<path d="M15 9.52734H17.9843C17.9943 9.35241 18 9.17666 18 9C18 8.82334 17.9943 8.64759 17.9843 8.47266H15V9.52734Z" fill="#FD8C02"/>
<path d="M3.00002 8.47266H0.0157148C0.00566016 8.64759 0 8.82334 0 9C0 9.17666 0.00566016 9.35241 0.0157148 9.52734H3.00002V8.47266Z" fill="#FDAE02"/>
<path d="M13.6169 5.13024L15.7271 3.02002C15.6105 2.88924 15.4902 2.76095 15.3653 2.63601C15.2404 2.5111 15.1121 2.39083 14.9813 2.27422L12.8711 4.3844L13.6169 5.13024Z" fill="#FD8C02"/>
<path d="M4.38366 12.8698L2.27344 14.98C2.39002 15.1108 2.51029 15.239 2.63523 15.364C2.76014 15.4889 2.88843 15.6092 3.01924 15.7258L5.12946 13.6156L4.38366 12.8698Z" fill="#FDAE02"/>
<path d="M8.99999 2.47363C5.40079 2.47363 2.47266 5.40177 2.47266 9.00096C2.47266 12.6002 5.40079 15.5283 8.99999 15.5283H9.00003L9.35159 9.30671L9.00003 2.47363H8.99999Z" fill="#FFDF8E"/>
<path d="M15.5273 8.99999C15.5273 5.4008 12.5992 2.47268 9 2.47264V15.5273C12.5992 15.5273 15.5273 12.5992 15.5273 8.99999Z" fill="#FFD664"/>
<path d="M8.47266 5.22725V6.72726H9L9.35156 6.02509L9 5.22725H8.47266Z" fill="#FDAE02"/>
<path d="M9 5.22725H9.52734V6.72726H9V5.22725Z" fill="#FD8C02"/>
<path d="M7.67829 12.7728L7.8456 7.8516C7.26531 7.26705 6.35708 7.13697 5.62505 7.56669C4.79547 8.0536 4.48472 9.1079 4.91757 9.96691L6.33145 12.7728H7.67829Z" fill="#FDAE02"/>
<path d="M12.3729 7.56672C11.6408 7.13701 10.7326 7.26708 10.1523 7.85159L10.3578 12.7728H11.6664L13.0803 9.96691C13.5132 9.1079 13.2024 8.0536 12.3729 7.56672Z" fill="#FD8C02"/>
<path d="M7.67791 12.7728H9.01004L9.35024 9.56318L8.99868 6.19992C8.37618 6.19992 7.7897 6.47344 7.38963 6.95037C6.98955 7.42726 6.82217 8.05237 6.93088 8.6681L7.67791 12.7728Z" fill="#FDCB02"/>
<path d="M10.359 12.7728L11.0683 8.66536C11.1765 8.05234 11.0092 7.42723 10.609 6.95033C10.209 6.47344 9.62252 6.19992 9 6.19992V12.7728H10.359V12.7728Z" fill="#FDAE02"/>
</g>
<defs>
<clipPath id="clip0">
<rect width="18" height="18" fill="white"/>
</clipPath>
</defs>
</svg>
