<svg width="59" height="59" viewBox="0 0 59 59" fill="none" xmlns="http://www.w3.org/2000/svg">
<g clip-path="url(#clip0)">
<path d="M58.2667 17.6916C57.6827 17.278 56.9028 17.2696 56.312 17.6663L46.3901 24.2039C46.0086 24.4588 45.7419 24.8554 45.6541 25.3061C45.563 25.755 45.6574 26.2226 45.9141 26.6042C46.4846 27.455 46.7851 28.4475 46.7851 29.4755C46.7851 32.3349 44.459 34.661 41.5996 34.661C38.7402 34.661 36.414 32.3349 36.414 29.4755C36.414 27.7942 37.2445 26.2092 38.6321 25.2335C39.412 24.6866 39.601 23.6096 39.0541 22.8281L30.9145 11.1995C30.2731 10.2746 28.7269 10.2746 28.0854 11.1995L19.9459 22.8282C19.399 23.6097 19.5881 24.6867 20.3679 25.2336C21.7554 26.2093 22.5859 27.7943 22.5859 29.4756C22.5859 32.335 20.2598 34.6611 17.4004 34.6611C14.5409 34.6611 12.2148 32.335 12.2148 29.4756C12.2148 28.4476 12.5152 27.4551 13.0859 26.6043C13.3425 26.2228 13.437 25.7553 13.3458 25.3062C13.258 24.8555 12.9914 24.4588 12.6098 24.204L2.68793 17.6664C2.09378 17.2697 1.31722 17.2782 0.733208 17.6917C0.1492 18.1036 -0.120909 18.8312 0.051251 19.5233L7.07997 47.1795C7.29604 48.0506 8.14001 48.6329 9.04138 48.4658C22.6197 46.2038 36.3803 46.2038 49.9586 48.4658C50.0531 48.4826 50.151 48.4894 50.2422 48.4894C51.0221 48.4894 51.7242 47.9593 51.9201 47.1795L58.9488 19.5233C59.1209 18.8311 58.8509 18.1035 58.2667 17.6916Z" fill="url(#paint0_linear)"/>
</g>
<defs>
<linearGradient id="paint0_linear" x1="29.5" y1="48.4942" x2="29.5" y2="10.5058" gradientUnits="userSpaceOnUse">
<stop stop-color="#FD5900"/>
<stop offset="1" stop-color="#FFDE00"/>
</linearGradient>
<clipPath id="clip0">
<rect width="59" height="59" fill="white"/>
</clipPath>
</defs>
</svg>
