<svg width="37" height="29" viewBox="0 0 37 29" fill="none" xmlns="http://www.w3.org/2000/svg">
<path d="M4.99459 13.6274L6.59682 5.61621C6.78014 4.69948 7.96559 4.43025 8.52673 5.17847L13.2723 11.5059C14.0256 12.5103 13.0939 12.7445 9.97188 16.5951C5.83603 14.5666 4.72724 14.9646 4.99459 13.6274Z" fill="#FFC34D"/>
<path d="M27.0976 16.5951C23.958 12.8273 22.952 12.5363 23.7249 11.5059L28.4704 5.17846C29.0315 4.43046 30.217 4.69918 30.4004 5.61619L32.0026 13.6273C32.2813 15.0213 30.9414 14.669 27.0976 16.5951Z" fill="#FF9933"/>
<path d="M35.2672 9.29424L27.5053 15.0676L19.4407 0.955759C19.2333 0.592305 18.8677 0.410217 18.5007 0.410217C18.1343 0.410217 17.7673 0.592305 17.5591 0.955759L9.49453 15.0676L1.73266 9.29424C0.915436 8.68655 -0.214666 9.44598 0.0353436 10.4316L2.99789 22.0866L4.95895 23.2666L3.54849 24.2544L4.44303 27.7733C4.56514 28.2531 4.99796 28.5898 5.49365 28.5898H31.5062C32.0019 28.5898 32.4347 28.2531 32.5568 27.7733L33.4514 24.2544L32.5901 23.1705L34.002 22.0866L36.9645 10.4316C37.2153 9.44381 36.083 8.688 35.2672 9.29424Z" fill="#FFEA80"/>
<path d="M36.9639 10.4316L34.0013 22.0866L32.5894 23.1705L33.4507 24.2544L32.5562 27.7733C32.4341 28.2531 32.0012 28.5898 31.5056 28.5898H18.5V0.410217C18.8671 0.410217 19.2327 0.592305 19.4401 0.955759L27.5047 15.0676L35.2666 9.29424C36.0823 8.688 37.2146 9.44381 36.9639 10.4316Z" fill="#FFC34D"/>
<path d="M22.6801 17.1934L19.4285 11.7741C19.2175 11.4229 18.8592 11.248 18.5 11.248C18.1402 11.248 17.7796 11.4244 17.5701 11.7741L14.3185 17.1934C14.1126 17.5366 14.1126 17.9658 14.3185 18.309L17.5701 23.7283C17.7811 24.0795 18.1409 24.2543 18.5 24.2543C18.8592 24.2536 19.219 24.0773 19.4285 23.7283L22.6801 18.309C22.886 17.9658 22.886 17.5366 22.6801 17.1934Z" fill="#FF6A4D"/>
<path d="M22.6801 18.309L19.4285 23.7283C19.219 24.0773 18.8591 24.2536 18.5 24.2543V11.248C18.8591 11.248 19.2175 11.4229 19.4285 11.7741L22.6801 17.1934C22.886 17.5366 22.886 17.9658 22.6801 18.309Z" fill="#F03800"/>
<path d="M10.9111 23.1705C10.9111 23.7688 10.4256 24.2544 9.82729 24.2544H3.54669L2.99609 22.0867H9.82729C10.4256 22.0867 10.9111 22.5722 10.9111 23.1705Z" fill="#FFC34D"/>
<path d="M34.001 22.0867L33.4504 24.2544H27.1698C26.5715 24.2544 26.0859 23.7688 26.0859 23.1705C26.0859 22.5722 26.5715 22.0867 27.1698 22.0867H34.001Z" fill="#FF9933"/>
</svg>
