<svg width="59" height="63" viewBox="0 0 59 63" fill="none" xmlns="http://www.w3.org/2000/svg">
<path d="M7.3975 55.6395H44.8274L43.0398 49.8514C43.3049 50.0824 58.375 63 58.375 63V6.49687C58.1965 2.98462 55.1725 0 51.424 0L7.41063 0.007875C3.66475 0.007875 0.625 2.99775 0.625 6.51V49.14C0.625 52.8439 3.6595 55.6395 7.3975 55.6395ZM35.086 14.9179L34.9994 14.9494L35.0309 14.9179H35.086ZM15.0546 18.249C19.8663 14.7473 24.3261 14.9153 24.3261 14.9153L24.6858 15.2696C18.7979 16.674 16.1283 19.3043 16.1283 19.3043C16.4013 19.2465 28.2899 12.3874 42.6959 19.4775C42.6959 19.4775 40.021 17.0179 34.4954 15.4429L34.9836 14.9625C35.7475 14.9651 39.79 15.1069 44.116 18.27C44.116 18.27 48.9565 26.5387 48.9565 36.6975C48.7964 36.5033 45.9535 41.0708 38.6376 41.2283C38.6376 41.2283 37.3986 39.8265 36.5166 38.6033C40.7954 37.3748 42.3966 34.9178 42.3966 34.9178C34.0675 40.1625 26.7674 39.3435 18.034 35.7997C17.9526 35.7997 17.9159 35.763 17.8739 35.721V35.7052C17.8319 35.6659 17.7951 35.6265 17.7138 35.6265H17.5563C17.0208 35.2747 16.6638 35.1015 16.6638 35.1015C16.6638 35.1015 18.2624 37.5585 22.3705 38.787C21.2916 40.0181 20.2233 41.4173 20.2233 41.4173C12.91 41.244 10.243 36.6765 10.243 36.6765C10.243 26.502 15.0546 18.249 15.0546 18.249Z" fill="white"/>
<path d="M35.5581 33.5239C37.4245 33.5239 38.9444 31.9489 38.9444 30.0064C38.9444 28.077 37.4324 26.502 35.5581 26.502V26.5099C33.6996 26.5099 32.1771 28.0796 32.1719 30.0221C32.1719 31.9489 33.6917 33.5239 35.5581 33.5239Z" fill="white"/>
<path d="M23.437 33.5239C25.3034 33.5239 26.8233 31.9489 26.8233 30.0064C26.8233 28.077 25.3139 26.502 23.4475 26.502L23.437 26.5099C21.5707 26.5099 20.0508 28.0796 20.0508 30.0221C20.0508 31.9489 21.5707 33.5239 23.437 33.5239Z" fill="white"/>
</svg>
