<svg width="58" height="58" viewBox="0 0 58 58" fill="none" xmlns="http://www.w3.org/2000/svg">
<g clip-path="url(#clip0)">
<path d="M56.7918 3.85849L35.584 19.1906L32.104 21.7123C30.2605 23.0742 27.7441 23.0742 25.9006 21.7123L22.4206 19.1906L1.1875 3.88366C2.3685 2.23208 4.27623 1.25463 6.30667 1.26102H51.6979C53.7135 1.26279 55.6067 2.22818 56.7918 3.85849Z" fill="#FFD54F"/>
<path d="M1.18531 3.883L22.4184 19.1899L1.841 39.7673C0.659411 38.5827 -0.0029001 36.977 5.5059e-05 35.3038V7.56477C-0.00550064 6.24275 0.409522 4.95336 1.18531 3.883Z" fill="#FFC107"/>
<path d="M58.0002 7.56547V35.3046C58.0032 36.9778 57.341 38.5836 56.1594 39.7681L35.582 19.1907L56.7898 3.85852C57.5772 4.93396 58.0011 6.23246 58.0002 7.56547Z" fill="#FFC107"/>
<path d="M37.8245 46.6523C36.1501 46.6523 35.3028 45.3914 35.3028 42.8697C35.3441 39.3463 32.5213 36.4567 28.9979 36.4155C25.4746 36.3742 22.585 39.197 22.5438 42.7204C22.5025 46.2438 25.3253 49.1333 28.8487 49.1746C30.737 49.1967 32.5381 48.3811 33.7671 46.9473C34.6044 48.3821 36.1646 49.2383 37.8245 49.174C42.8681 49.174 42.8681 44.4281 42.8681 42.8697C42.8682 35.2098 36.6587 29.0001 28.9988 28.9998C21.3389 28.9996 15.1291 35.2092 15.1289 42.8692C15.1288 50.5291 21.3383 56.7388 28.9982 56.7391C32.597 56.7392 36.055 55.3403 38.6416 52.8383C39.1423 52.3508 39.1529 51.5498 38.6656 51.0491C38.1781 50.5484 37.3771 50.5377 36.8764 51.0251C32.3655 55.3759 25.1817 55.2461 20.8308 50.7353C16.48 46.2244 16.6098 39.0405 21.1207 34.6897C25.6315 30.3389 32.8154 30.4687 37.1662 34.9795C39.2093 37.0978 40.3496 39.9269 40.3464 42.8698C40.3464 45.6966 39.7109 46.6523 37.8245 46.6523ZM28.9985 46.6523C26.9095 46.6523 25.2159 44.9587 25.2159 42.8697C25.2159 40.7806 26.9095 39.0871 28.9985 39.0871C31.0876 39.0871 32.7811 40.7806 32.7811 42.8697C32.7811 44.9587 31.0876 46.6523 28.9985 46.6523Z" fill="#455A64"/>
<path d="M35.5807 19.1906L32.1007 21.7122C30.2571 23.0742 27.7408 23.0742 25.8972 21.7122L22.4172 19.1906L1.83984 39.7679C3.02439 40.9495 4.63011 41.6118 6.30332 41.6088H12.6706C13.3528 32.5916 21.2155 25.8347 30.2328 26.5169C38.3015 27.1273 44.7143 33.5401 45.3247 41.6088H51.6946C53.3678 41.6117 54.9735 40.9495 56.1581 39.7679L35.5807 19.1906Z" fill="#FFA000"/>
</g>
<defs>
<clipPath id="clip0">
<rect width="58" height="58" fill="white"/>
</clipPath>
</defs>
</svg>
