<svg width="29" height="29" viewBox="0 0 29 29" fill="none" xmlns="http://www.w3.org/2000/svg">
<path d="M27.4923 10.9976V6.80385C27.4904 5.15488 26.154 3.8185 24.505 3.81659H23.7184V3.34493C23.7116 2.00664 22.6248 0.925781 21.2867 0.925781C19.9487 0.925781 18.862 2.00664 18.8548 3.34493V3.81659H10.0691V3.34493C10.0623 2.00664 8.97549 0.925781 7.63741 0.925781C6.29933 0.925781 5.21272 2.00664 5.20548 3.34493V3.81659H4.41869C2.76994 3.8185 1.43356 5.15488 1.43164 6.80385V25.126C1.43356 26.775 2.76994 28.1114 4.41869 28.1133H24.505C26.154 28.1114 27.4904 26.775 27.4923 25.126V11.4288C27.5396 11.2889 27.5396 11.1375 27.4923 10.9976V10.9976ZM21.2867 2.27302C21.8783 2.27387 22.3576 2.75298 22.3582 3.34493V4.77714C22.3538 5.36547 21.8751 5.84011 21.2863 5.84011C20.6978 5.84011 20.2193 5.36547 20.2146 4.77714V3.34493C20.2152 2.75298 20.6948 2.27366 21.2867 2.27302ZM6.56528 3.34493C6.56997 2.75617 7.04843 2.28154 7.63698 2.28154C8.22575 2.28154 8.704 2.75617 8.7089 3.34493V4.77714C8.704 5.36547 8.22575 5.84011 7.63698 5.84011C7.04843 5.84011 6.56997 5.36547 6.56528 4.77714V3.34493ZM4.41869 5.1766H5.2387C5.43417 6.34902 6.44838 7.20843 7.63698 7.20843C8.8258 7.20843 9.84001 6.34902 10.0355 5.1766H18.8882C19.0837 6.34902 20.0981 7.20843 21.2867 7.20843C22.4753 7.20843 23.4898 6.34902 23.685 5.1766H24.505C25.4034 5.17767 26.1312 5.90548 26.1323 6.80385V10.533H2.79165V6.80406C2.79251 5.90569 3.52074 5.17767 4.41869 5.1766V5.1766ZM24.505 26.7533H4.41869C3.52074 26.7522 2.79272 26.0244 2.79165 25.126V11.893H26.1323V25.126C26.1312 26.0244 25.4034 26.7522 24.505 26.7533V26.7533Z" fill="#FDB207"/>
<path d="M17.8452 16.1994L13.3808 20.5584L11.1143 18.3453C10.8473 18.0845 10.4201 18.0875 10.157 18.3519C9.89377 18.6166 9.89292 19.0438 10.1548 19.3093L10.1642 19.3182L12.9059 21.9955C13.17 22.2533 13.5918 22.2533 13.8559 21.9955L18.7955 17.1729C19.0619 16.911 19.0672 16.483 18.8074 16.2145C18.5472 15.9462 18.1194 15.9381 17.849 16.196L17.8452 16.1996V16.1994Z" fill="#FDB207"/>
</svg>
