<svg width="58" height="58" viewBox="0 0 58 58" fill="none" xmlns="http://www.w3.org/2000/svg">
<path d="M20.6267 30.0649C16.0275 30.0649 12.3119 33.7805 12.3798 38.3344C12.4251 41.257 14.0337 43.7946 16.4013 45.2106C15.597 43.9758 15.1212 42.5145 15.0986 40.9399C15.0306 36.386 18.7462 32.6703 23.3455 32.6703C24.2517 32.6703 25.124 32.8176 25.9396 33.0781V23.959C25.09 23.8344 24.2177 23.7664 23.3455 23.7664C23.3001 23.7664 23.2662 23.7664 23.2208 23.7664V30.4727C22.4052 30.2121 21.533 30.0649 20.6267 30.0649Z" fill="#F00044"/>
<path d="M40.5102 2.71875H40.4422H38.0859C38.7656 6.12852 40.6801 9.09648 43.3535 11.1129C41.5977 8.79062 40.5328 5.89062 40.5102 2.71875Z" fill="#F00044"/>
<path d="M54.3742 16.5957C53.4793 16.5957 52.6184 16.5051 51.7687 16.3465V22.8828C48.6875 22.8828 45.6969 22.2824 42.8875 21.0817C41.075 20.3113 39.3871 19.3258 37.8352 18.1363L37.8805 38.2891C37.8578 42.8203 36.068 47.0684 32.8281 50.2742C30.1887 52.8797 26.8469 54.5449 23.2219 55.0774C22.3723 55.202 21.5 55.2699 20.6277 55.2699C16.7535 55.2699 13.0605 54.0125 10.0586 51.6902C10.3984 52.0981 10.7609 52.4945 11.1574 52.8797C14.4199 56.0969 18.7473 57.8754 23.3578 57.8754C24.2301 57.8754 25.1023 57.8074 25.952 57.6828C29.577 57.1504 32.9187 55.4852 35.5582 52.8797C38.798 49.6738 40.5879 45.4258 40.6105 40.8945L40.4406 20.7418C41.9812 21.9313 43.6691 22.9281 45.493 23.6871C48.3137 24.8766 51.3043 25.4883 54.3742 25.4883" fill="#F00044"/>
<path d="M11.1235 28.7848C14.352 25.5789 18.6454 23.8004 23.2219 23.7664V21.3535C22.3723 21.2289 21.5001 21.1609 20.6278 21.1609C16.0059 21.1609 11.6672 22.9395 8.40474 26.1793C5.19888 29.3625 3.36372 33.7125 3.37505 38.2324C3.37505 42.7863 5.17622 47.057 8.4274 50.2855C8.94849 50.7953 9.48091 51.2711 10.0473 51.7016C7.48716 48.6543 6.0938 44.8481 6.08247 40.8379C6.0938 36.318 7.91763 31.968 11.1235 28.7848Z" fill="#08FFF9"/>
<path d="M51.7688 16.3465V13.9223H51.7461C48.5969 13.9223 45.6969 12.8801 43.3633 11.1129C45.391 13.7863 48.359 15.6894 51.7688 16.3465Z" fill="#08FFF9"/>
<path d="M22.882 48.9602C23.9582 49.0168 24.9891 48.8695 25.9406 48.5637C29.2258 47.4875 31.5934 44.4289 31.5934 40.8266L31.6047 27.3461V2.71875H38.0844C37.9145 1.86914 37.8238 1.0082 37.8125 0.113281H28.8859V24.7293L28.8746 38.2098C28.8746 41.8121 26.507 44.8707 23.2219 45.9469C22.2703 46.2641 21.2395 46.4113 20.1633 46.3434C18.7926 46.2641 17.5125 45.8563 16.4023 45.1992C17.7957 47.3516 20.1746 48.8129 22.882 48.9602Z" fill="#08FFF9"/>
<path d="M23.2219 55.0773C26.8469 54.5449 30.1887 52.8797 32.8282 50.2742C36.068 47.0684 37.8579 42.8203 37.8805 38.2891L37.8352 18.1363C39.3758 19.3258 41.0637 20.3227 42.8876 21.0816C45.7083 22.2711 48.6989 22.8828 51.7688 22.8828V16.3465C48.359 15.6895 45.3911 13.7863 43.3633 11.1129C40.6899 9.09648 38.7641 6.12852 38.0958 2.71875H31.6047V27.3348L31.5934 40.8152C31.5934 44.4176 29.2258 47.4762 25.9407 48.5523C24.9891 48.8695 23.9583 49.0168 22.8821 48.9488C20.1633 48.8016 17.7958 47.3402 16.4024 45.1992C14.0348 43.7945 12.4262 41.2457 12.3809 38.323C12.3129 33.7691 16.0286 30.0535 20.6278 30.0535C21.534 30.0535 22.4063 30.2008 23.2219 30.4613V23.7551C18.6454 23.7891 14.352 25.5676 11.1235 28.7734C7.91763 31.9566 6.08247 36.3066 6.0938 40.8152C6.0938 44.8254 7.48716 48.6316 10.0586 51.6789C13.0719 54.0012 16.7536 55.2586 20.6278 55.2586C21.5001 55.2699 22.3723 55.202 23.2219 55.0773Z" fill="black"/>
</svg>
