<svg width="43" height="43" viewBox="0 0 43 43" fill="none" xmlns="http://www.w3.org/2000/svg">
<path d="M21.5 43C33.3741 43 43 33.3741 43 21.5C43 9.62588 33.3741 0 21.5 0C9.62588 0 0 9.62588 0 21.5C0 33.3741 9.62588 43 21.5 43Z" fill="#627EEA"/>
<path d="M22.168 5.375V17.294L32.2419 21.7956L22.168 5.375Z" fill="white" fill-opacity="0.602"/>
<path d="M22.1692 5.375L12.0938 21.7956L22.1692 17.294V5.375Z" fill="white"/>
<path d="M22.168 29.5194V37.6183L32.2487 23.6714L22.168 29.5194Z" fill="white" fill-opacity="0.602"/>
<path d="M22.1692 37.6183V29.5181L12.0938 23.6714L22.1692 37.6183Z" fill="white"/>
<path d="M22.168 27.6449L32.2419 21.7955L22.168 17.2966V27.6449Z" fill="white" fill-opacity="0.2"/>
<path d="M12.0938 21.7955L22.1692 27.6449V17.2966L12.0938 21.7955Z" fill="white" fill-opacity="0.602"/>
</svg>
