<svg width="39" height="39" viewBox="0 0 39 39" fill="none" xmlns="http://www.w3.org/2000/svg">
<g clip-path="url(#clip0)">
<path d="M38.8025 15.9002C38.5444 15.2904 38.0642 14.8177 37.4504 14.5691L36.7649 14.2913V10.6693C36.7649 9.30223 35.6528 8.19012 34.2857 8.19012H21.7039L14.4879 5.26687C14.1948 5.14804 13.8612 5.28949 13.7425 5.58245C13.6238 5.87541 13.7651 6.20919 14.0581 6.32787L18.655 8.19012H6.68923L7.875 5.26291C8.15127 4.58094 8.93089 4.25081 9.61278 4.52709L11.9365 5.46842C12.2297 5.58733 12.5633 5.4458 12.6819 5.15284C12.8007 4.85989 12.6593 4.52618 12.3663 4.40742L10.0425 3.46609C8.77581 2.95285 7.32725 3.56603 6.81392 4.833L5.45403 8.19004H4.71432C3.34734 8.19004 2.23523 9.30215 2.23523 10.6692V16.1358L0.182782 21.2026C-0.0659192 21.8163 -0.0606633 22.4902 0.197559 23.1C0.455706 23.7098 0.935893 24.1826 1.54969 24.4312L2.23531 24.7089V28.331C2.23531 29.698 3.34742 30.8101 4.7144 30.8101H7.157C7.47312 30.8101 7.72936 30.5539 7.72936 30.2378C7.72936 29.9216 7.47312 29.6654 7.157 29.6654H4.7144C3.97865 29.6654 3.38002 29.0668 3.38002 28.331V18.1011H10.902C9.58056 19.1451 7.81757 20.951 7.0742 23.5531C6.99186 23.8414 7.15365 24.1524 7.43678 24.2509C7.7433 24.3575 8.08599 24.1792 8.17504 23.8675C8.94712 21.1647 11.0344 19.3842 12.2109 18.5625V29.6653H9.44658C9.13046 29.6653 8.87422 29.9216 8.87422 30.2377C8.87422 30.5538 9.13046 30.81 9.44658 30.81H17.2962L22.9836 33.114C23.0541 33.1426 23.1267 33.1561 23.1983 33.1561C23.4246 33.1561 23.6388 33.021 23.729 32.7984C23.8478 32.5055 23.7065 32.1717 23.4135 32.053L20.3452 30.81H32.3109L31.1251 33.7373C30.8488 34.4192 30.0689 34.7493 29.3873 34.4731L25.5406 32.9147C25.2474 32.796 24.9138 32.9374 24.7951 33.2303C24.6764 33.5233 24.8177 33.8571 25.1107 33.9757L28.9575 35.5341C29.2615 35.6572 29.5758 35.7155 29.8852 35.7155C30.8655 35.7155 31.796 35.1301 32.1862 34.1672L33.5461 30.8101H34.2858C35.6528 30.8101 36.7649 29.698 36.7649 28.331V22.8643L38.8174 17.7977C39.0659 17.1839 39.0607 16.5101 38.8025 15.9002ZM1.97952 23.3702C1.64917 23.2363 1.39072 22.9819 1.2517 22.6537C1.11276 22.3255 1.10995 21.9628 1.24378 21.6325L2.23523 19.185V23.4739L1.97952 23.3702ZM7.11816 14.8282C7.02005 14.5975 6.94959 14.2287 7.46657 13.6924C7.7046 13.4454 8.00617 13.2877 8.35435 13.3403C9.04645 13.4445 9.96013 14.2445 10.9274 15.5927C11.2634 16.061 11.5559 16.5262 11.7817 16.907C9.5881 16.6926 7.53664 15.8129 7.11816 14.8282ZM12.2108 15.426C11.3021 14.0612 9.93865 12.4218 8.52558 12.2083C7.8296 12.1032 7.17848 12.3417 6.64239 12.8978C6.2306 13.3249 5.60805 14.2019 6.06455 15.2759C6.34836 15.9438 6.98943 16.51 7.8232 16.9562H3.38002V10.6692C3.38002 9.93339 3.97865 9.33483 4.7144 9.33483H12.2109V15.426H12.2108ZM35.6201 28.331C35.6201 29.0668 35.0214 29.6653 34.2857 29.6653H13.3556V18.5625C14.532 19.3842 16.6193 21.1646 17.3914 23.8675C17.4806 24.1798 17.8228 24.3566 18.1296 24.2509C18.413 24.1532 18.5744 23.8408 18.4922 23.5531C17.7489 20.951 15.9859 19.1451 14.6644 18.1011H35.6201V28.331ZM13.7844 16.9069C14.008 16.5299 14.2975 16.0696 14.6308 15.6042C15.6009 14.2491 16.5175 13.4451 17.2117 13.3403C17.56 13.2875 17.8617 13.4455 18.0999 13.6925C18.6168 14.2289 18.5463 14.5976 18.4482 14.8283C18.0297 15.8129 15.978 16.6926 13.7844 16.9069ZM35.6201 16.9563H17.7431C18.5768 16.51 19.218 15.9438 19.5018 15.276C19.9583 14.202 19.3357 13.325 18.924 12.8979C18.3878 12.3416 17.7361 12.1034 17.0407 12.2084C15.6277 12.4218 14.2641 14.0613 13.3555 15.4261V9.33498H34.2856C35.0214 9.33498 35.62 9.93354 35.62 10.6694V16.9563H35.6201ZM37.7563 17.3678L36.7649 19.8153V15.5265L37.0206 15.6301C37.3509 15.7639 37.6095 16.0184 37.7483 16.3466C37.8873 16.6748 37.8901 17.0375 37.7563 17.3678Z" fill="#B1B4FF"/>
<path d="M29.2642 26.807V27.3561C29.2642 27.6722 29.5204 27.9284 29.8365 27.9284C30.1527 27.9284 30.4089 27.6722 30.4089 27.3561V26.8227C30.8403 26.7312 31.1359 26.5351 31.3253 26.3569C31.6988 26.0053 31.9219 25.4748 31.9219 24.9375C31.9219 24.4976 31.7848 24.0994 31.5255 23.7858C31.178 23.3654 30.6322 23.1115 29.9033 23.031C29.2239 22.9561 29.1224 22.6059 29.1224 22.4038C29.1224 22.2846 29.1568 21.6897 29.8364 21.6897C30.2741 21.6897 30.4635 21.9508 30.5103 22.0286C30.5961 22.2372 30.8011 22.3842 31.0406 22.3842C31.4719 22.3842 31.7207 21.9355 31.5556 21.5577C31.4194 21.2616 31.0442 20.8055 30.4088 20.6242V20.0643C30.4088 19.7482 30.1526 19.4919 29.8364 19.4919C29.5203 19.4919 29.2641 19.7482 29.2641 20.0643V20.6226C28.8744 20.7346 28.5494 20.9652 28.3212 21.2987C28.0024 21.7646 27.9776 22.2625 27.9776 22.4039C27.9776 23.1266 28.4491 24.0224 29.7778 24.169C30.7771 24.2793 30.7771 24.7576 30.7771 24.9376C30.7771 25.1133 30.715 25.3593 30.5407 25.5232C30.3749 25.6792 30.1179 25.748 29.7771 25.7271C29.0548 25.683 28.8911 25.2331 28.8748 25.182L28.8745 25.1821C28.8125 24.9323 28.5874 24.7469 28.3185 24.7469C27.9249 24.7469 27.644 25.1512 27.7815 25.5204C27.8399 25.7037 28.1679 26.5581 29.2642 26.807Z" fill="#B1B4FF"/>
</g>
<defs>
<clipPath id="clip0">
<rect width="39" height="39" fill="white"/>
</clipPath>
</defs>
</svg>
