<svg width="48" height="48" viewBox="0 0 48 48" fill="none" xmlns="http://www.w3.org/2000/svg">
<path d="M41.7804 46.2803C41.6397 46.421 41.4489 46.5 41.25 46.5H38.25C38.0511 46.5 37.8603 46.421 37.7197 46.2803C37.579 46.1397 37.5 45.9489 37.5 45.75V40.8107L31.1894 34.5H27C26.8266 34.5 26.6586 34.4399 26.5245 34.33C26.3904 34.2201 26.2986 34.0671 26.2646 33.8971L25.7197 31.173C25.6445 30.7968 25.4901 30.4409 25.2668 30.129C25.0435 29.817 24.7565 29.5561 24.4246 29.3635C24.0928 29.171 23.7239 29.0512 23.3422 29.0121C22.9606 28.9731 22.575 29.0156 22.2111 29.1369L19.7371 29.9615C19.605 30.0056 19.4632 30.0119 19.3276 29.9799C19.1921 29.9479 19.0681 29.8788 18.9696 29.7803L11.245 22.0557C8.60104 19.4135 6.40804 16.3558 4.75315 13.0043C3.09605 9.65379 1.99933 6.05436 1.5066 2.34912C1.49042 2.22782 1.50418 2.1044 1.54666 1.98963C1.58914 1.87487 1.65906 1.77224 1.75032 1.69071C1.84158 1.60917 1.9514 1.55121 2.07021 1.52187C2.18901 1.49253 2.3132 1.49271 2.43192 1.5224L11.4319 3.7724C11.5638 3.80537 11.6842 3.87357 11.7804 3.96969L19.8533 12.0426C20.2577 12.4497 20.768 12.7354 21.3265 12.8672C21.8849 12.9991 22.4691 12.9718 23.0129 12.7885C23.145 12.7445 23.2868 12.7382 23.4223 12.7702C23.5579 12.8022 23.6819 12.8712 23.7804 12.9697L27.5304 16.7197C27.671 16.8604 27.75 17.0511 27.75 17.25V18.6492C27.7482 19.2963 27.8748 19.9373 28.1225 20.5351C28.3701 21.1329 28.7339 21.6757 29.1927 22.132C29.9476 22.8837 30.9246 23.3723 31.9789 23.5251L35.356 24.0076C35.5167 24.0305 35.6656 24.1049 35.7804 24.2197L46.2804 34.7197C46.421 34.8604 46.5 35.0511 46.5 35.25V41.25C46.5 41.4489 46.421 41.6397 46.2804 41.7803L41.7804 46.2803ZM31.5 33C31.6989 33 31.8897 33.079 32.0304 33.2197L38.7804 39.9697C38.921 40.1104 39 40.3011 39 40.5V45H40.9394L45 40.9394V39H41.25C41.0511 39 40.8603 38.921 40.7196 38.7803L32.1639 30.2246C31.76 30.468 31.3813 30.7511 31.0337 31.0699L28.9281 33H31.5ZM33.6217 29.561L36 31.9394V29.2286C35.194 29.2014 34.3894 29.3139 33.6217 29.561ZM37.5 29.4419V33.4394L39 34.9394V30.0172C38.5239 29.7682 38.0205 29.5752 37.5 29.4419ZM23.0284 14.339C22.2754 14.5084 21.4918 14.4839 20.751 14.2677C20.0101 14.0516 19.3363 13.6509 18.7926 13.1033L10.8666 5.17723L6.79326 4.1589L11.7689 8.92727L10.7311 10.0103L3.86023 3.42564L3.15894 3.25031C3.68842 6.40764 4.67865 9.47011 6.09797 12.3397C7.68039 15.5446 9.77743 18.4685 12.3057 20.995L18 26.6893L21.75 22.9394V20.5701L17.4811 16.479L18.5189 15.396L22.4888 19.2005L25.1893 16.5L23.0284 14.339ZM34.8964 25.4571L31.7667 25.01C30.3913 24.8106 29.1167 24.1733 28.132 23.1926C27.5334 22.5974 27.0589 21.8893 26.7359 21.1094C26.4128 20.3295 26.2477 19.4933 26.25 18.6492V17.5607L23.25 20.5607V23.25C23.25 23.4489 23.171 23.6397 23.0304 23.7803L19.0607 27.75L19.7026 28.3919L21.7367 27.7139C22.3025 27.5253 22.9018 27.4592 23.4951 27.5199C24.0883 27.5807 24.6618 27.7669 25.1776 28.0662C25.6934 28.3655 26.1396 28.7711 26.4867 29.256C26.8337 29.7409 27.0737 30.2941 27.1906 30.8789L27.4744 32.2977L30.0201 29.9641C30.9881 29.0732 32.1502 28.4198 33.4143 28.0554C34.6784 27.6909 36.01 27.6256 37.3038 27.8645L34.8964 25.4571ZM40.7196 31.2803V31.2803C40.6477 31.2084 40.5742 31.1393 40.5 31.0712V36.4394L41.5606 37.5H42V32.5607L40.7196 31.2803ZM43.5 34.0607V37.5H45V35.5607L43.5 34.0607Z" fill="#B1B4FF"/>
<path d="M25.5 24C25.0858 24 24.75 23.6642 24.75 23.25C24.75 22.8358 25.0858 22.5 25.5 22.5C25.9142 22.5 26.25 22.8358 26.25 23.25C26.25 23.6642 25.9142 24 25.5 24Z" fill="#B1B4FF"/>
<path d="M13.2695 10.3648L14.7695 11.8022L13.7317 12.8852L12.2317 11.4477L13.2695 10.3648Z" fill="#B1B4FF"/>
</svg>
