<svg width="47" height="47" viewBox="0 0 47 47" fill="none" xmlns="http://www.w3.org/2000/svg">
<path d="M31.0333 46.9981C30.2813 46.9981 29.5273 46.8395 28.8321 46.5222L24.8919 44.7303C24.0107 44.3308 22.9963 44.3289 22.1131 44.7303L18.1729 46.5203C16.8334 47.1273 15.2922 47.1528 13.937 46.5927C12.5819 46.0307 11.5087 44.9203 10.9917 43.5475L9.47202 39.4938C9.13127 38.5851 8.41452 37.8683 7.50782 37.5296L3.45407 36.0099C2.07932 35.4929 0.970899 34.4197 0.408857 33.0646C-0.153185 31.7094 -0.125768 30.1662 0.481315 28.8287L2.27319 24.8885C2.67269 24.0053 2.67269 22.9928 2.27319 22.1096L0.479357 18.1695C-0.127726 16.8339 -0.155143 15.2888 0.406899 13.9336C0.96894 12.5784 2.07932 11.5053 3.45211 10.9883L7.50586 9.4686C8.41452 9.12785 9.13127 8.4111 9.47007 7.50439L10.9897 3.45064C11.5067 2.07589 12.5799 0.967475 13.9351 0.405434C15.2922 -0.156608 16.8334 -0.129191 18.1709 0.477892L22.1111 2.26977C22.9924 2.66927 24.0068 2.67123 24.89 2.26977L28.8301 0.479851C30.1657 -0.129191 31.7109 -0.154649 33.066 0.407392C34.4212 0.969434 35.4944 2.07981 36.0114 3.4526L37.531 7.50635C37.8718 8.41502 38.5885 9.13177 39.4952 9.47056L43.549 10.9902C44.9237 11.5072 46.0322 12.5804 46.5942 13.9356C47.1562 15.2907 47.1288 16.8339 46.5217 18.1714L44.7299 22.1116C44.3304 22.9948 44.3304 24.0073 44.7299 24.8905L46.5198 28.8306C47.1269 30.1662 47.1543 31.7113 46.5922 33.0665C46.0302 34.4217 44.9198 35.4948 43.547 36.0118L39.4933 37.5315C38.5846 37.8723 37.8679 38.589 37.5291 39.4957L36.0094 43.5495C35.4924 44.9242 34.4192 46.0326 33.0641 46.5947C32.4178 46.863 31.7246 46.9981 31.0333 46.9981ZM23.5015 42.4724C24.2516 42.4724 25.0016 42.631 25.7007 42.9483L29.6429 44.7401C30.5006 45.1318 31.4504 45.1475 32.3179 44.7852C33.1874 44.4248 33.8474 43.7414 34.1784 42.8621L35.698 38.8083C36.2366 37.3709 37.3704 36.2371 38.8079 35.6985L42.8616 34.1788C43.7429 33.8498 44.4263 33.1879 44.7847 32.3184C45.145 31.4489 45.1294 30.4991 44.7396 29.6433L42.9478 25.7032C42.3133 24.3049 42.3133 22.7011 42.9478 21.3028L44.7396 17.3607C45.1294 16.5049 45.145 15.5551 44.7847 14.6856C44.4244 13.8161 43.7409 13.1561 42.8616 12.8252L38.8079 11.3055C37.3704 10.767 36.2366 9.6331 35.698 8.19568L34.1784 4.14193C33.8494 3.26068 33.1874 2.57723 32.3179 2.21885C31.4484 1.85656 30.5006 1.87418 29.6429 2.26389L25.7027 4.05577C24.3044 4.68831 22.7025 4.68831 21.3043 4.05577L17.3602 2.25998C16.5024 1.87027 15.5546 1.8546 14.6851 2.21493C13.8156 2.57527 13.1556 3.25872 12.8247 4.13802L11.305 8.19177C10.7665 9.62918 9.63065 10.765 8.19519 11.3036L4.14144 12.8232C3.26019 13.1522 2.57673 13.8141 2.21836 14.6836C1.85607 15.5531 1.87369 16.5029 2.26144 17.3587L4.05332 21.2989C4.68782 22.6971 4.68782 24.301 4.05332 25.6993L2.26144 29.6414C1.87173 30.4972 1.85607 31.447 2.2164 32.3165C2.57673 33.186 3.26019 33.8459 4.13948 34.1769L8.19323 35.6966C9.63065 36.2351 10.7645 37.369 11.3031 38.8064L12.8227 42.8601C13.1517 43.7414 13.8137 44.4248 14.6832 44.7832C15.5526 45.1436 16.5005 45.1279 17.3582 44.7382L21.2984 42.9463C22.0014 42.631 22.7515 42.4724 23.5015 42.4724ZM25.2973 3.16081H25.3169H25.2973Z" fill="#B1B4FF"/>
<path d="M16.6458 19.5834C13.9473 19.5834 11.75 17.3862 11.75 14.6876C11.75 11.989 13.9473 9.79175 16.6458 9.79175C19.3444 9.79175 21.5417 11.989 21.5417 14.6876C21.5417 17.3862 19.3444 19.5834 16.6458 19.5834ZM16.6458 11.7501C15.0263 11.7501 13.7083 13.068 13.7083 14.6876C13.7083 16.3071 15.0263 17.6251 16.6458 17.6251C18.2654 17.6251 19.5833 16.3071 19.5833 14.6876C19.5833 13.068 18.2654 11.7501 16.6458 11.7501Z" fill="#B1B4FF"/>
<path d="M30.3568 37.2084C27.6582 37.2084 25.4609 35.0112 25.4609 32.3126C25.4609 29.614 27.6582 27.4167 30.3568 27.4167C33.0554 27.4167 35.2526 29.614 35.2526 32.3126C35.2526 35.0112 33.0554 37.2084 30.3568 37.2084ZM30.3568 29.3751C28.7372 29.3751 27.4193 30.693 27.4193 32.3126C27.4193 33.9321 28.7372 35.2501 30.3568 35.2501C31.9763 35.2501 33.2943 33.9321 33.2943 32.3126C33.2943 30.693 31.9763 29.3751 30.3568 29.3751Z" fill="#B1B4FF"/>
<path d="M16.6465 35.25C16.4663 35.25 16.2842 35.201 16.1217 35.0972C15.6654 34.8074 15.5303 34.2003 15.8221 33.746L29.5304 12.2043C29.8222 11.75 30.4253 11.6149 30.8816 11.9047C31.3379 12.1945 31.4731 12.8016 31.1813 13.2559L17.4729 34.7976C17.2869 35.0894 16.9696 35.25 16.6465 35.25Z" fill="#B1B4FF"/>
</svg>
