<svg width="38" height="24" viewBox="0 0 38 24" fill="none" xmlns="http://www.w3.org/2000/svg">
<g clip-path="url(#clip0)">
<path d="M36.1227 0.00705436L26.7656 0.00463867H26.763C26.7557 0.00463867 26.7487 0.00591009 26.7417 0.00591009C25.4562 0.0448153 23.8551 1.06423 23.5636 2.32115L19.1385 21.6801C18.8468 22.9488 19.64 23.9811 20.9162 24H30.7464C32.0029 23.9386 33.2243 22.9309 33.5108 21.6882L37.9361 2.32916C38.2324 1.04771 37.4202 0.00705436 36.1227 0.00705436Z" fill="#01798A"/>
<path d="M19.1387 21.68L23.5638 2.321C23.8553 1.06408 25.4565 0.0446625 26.7419 0.00575723L23.0214 0.00346868L16.3184 0.00219727C15.0293 0.0282613 13.4075 1.0548 13.1159 2.32113L8.68957 21.68C8.39689 22.9487 9.19135 23.981 10.4666 23.9999H20.9164C19.6402 23.981 18.8471 22.9487 19.1387 21.68Z" fill="#024381"/>
<path d="M8.68982 21.68L13.1162 2.3211C13.4077 1.05477 15.0296 0.0282254 16.3186 0.00216141L7.73166 0C6.43542 0 4.77345 1.03836 4.47717 2.3211L0.0507951 21.68C0.0239187 21.7982 0.00887307 21.914 0 22.0271V22.3862C0.0866731 23.311 0.801019 23.9845 1.82785 23.9999H10.4669C9.1916 23.9811 8.39713 22.9488 8.68982 21.68Z" fill="#DD0228"/>
<path d="M16.5 14.1085H16.6625C16.8118 14.1085 16.9123 14.0588 16.9595 13.9607L17.3818 13.336H18.5125L18.2768 13.7469H19.6326L19.4605 14.3766H17.8472C17.6613 14.653 17.4326 14.7828 17.1576 14.7675H16.3173L16.5 14.1085ZM16.3143 15.0108H19.285L19.0956 15.6948H17.9008L17.7186 16.3549H18.8811L18.6918 17.039H17.5293L17.2592 18.0145C17.1924 18.1776 17.2803 18.2509 17.5216 18.2343H18.4689L18.2934 18.8701H16.4744C16.1297 18.8701 16.0113 18.675 16.1195 18.2841L16.4648 17.0391H15.7217L15.9105 16.3551H16.6537L16.8359 15.695H16.1255L16.3143 15.0108ZM21.0556 13.3311L21.0089 13.7316C21.0089 13.7316 21.5692 13.3158 22.0781 13.3158H23.9585L23.2394 15.8896C23.1798 16.1838 22.924 16.3302 22.4724 16.3302H20.3409L19.8417 18.1375C19.8127 18.2344 19.8535 18.2839 19.961 18.2839H20.3805L20.2263 18.845H19.1601C18.7509 18.845 18.5807 18.7233 18.6482 18.4788L20.059 13.3311H21.0556ZM22.6481 14.0588H20.9696L20.7687 14.7533C20.7687 14.7533 21.0483 14.5539 21.5155 14.5467C21.9814 14.5395 22.5131 14.5467 22.5131 14.5467L22.6481 14.0588ZM22.0399 15.6699C22.164 15.6866 22.2335 15.6381 22.2418 15.5234L22.3445 15.1574H20.6635L20.5226 15.6699H22.0399ZM20.9062 16.5015H21.8752L21.857 16.9161H22.115C22.2454 16.9161 22.3101 16.8748 22.3101 16.7933L22.3864 16.5252H23.1918L23.0843 16.9161C22.9933 17.2421 22.7522 17.4123 22.3602 17.4289H21.844L21.8416 18.1375C21.8322 18.251 21.9359 18.3089 22.1497 18.3089H22.6348L22.4783 18.8701H21.3146C20.9884 18.8853 20.8284 18.7317 20.8319 18.4057L20.9062 16.5015ZM9.16442 9.90214C9.033 10.5389 8.72836 11.0279 8.25577 11.3751C7.78743 11.7164 7.18354 11.8877 6.44399 11.8877C5.74804 11.8877 5.2379 11.7129 4.9123 11.3621C4.68648 11.1129 4.57422 10.7963 4.57422 10.4136C4.57422 10.2553 4.59338 10.0852 4.63157 9.90227L5.41947 6.14613H6.60937L5.83239 9.85955C5.81017 9.95282 5.79937 10.0484 5.80025 10.1442C5.79896 10.3344 5.8468 10.4903 5.9435 10.612C6.08444 10.7928 6.31321 10.8824 6.63174 10.8824C6.99785 10.8824 7.29954 10.7939 7.53371 10.6154C7.76788 10.4382 7.92078 10.1867 7.98945 9.85942L8.76899 6.14575H9.95297L9.16442 9.90214ZM14.1619 8.42438H15.0938L14.3638 11.7767H13.4337L14.1619 8.42438ZM14.4552 7.20306H15.3955L15.2198 8.01676H14.2797L14.4552 7.20306ZM15.9188 11.5215C15.6749 11.2912 15.5519 10.9806 15.5507 10.586C15.5507 10.5187 15.5548 10.442 15.564 10.3581C15.573 10.273 15.5843 10.1904 15.6004 10.1136C15.7108 9.56903 15.9463 9.13675 16.3088 8.81775C16.6708 8.49761 17.1075 8.33703 17.6189 8.33703C18.0376 8.33703 18.3698 8.45286 18.613 8.68426C18.856 8.91705 18.9778 9.23109 18.9778 9.63044C18.9778 9.69884 18.9725 9.77805 18.9635 9.86311C18.9531 9.94696 18.9401 10.0305 18.9247 10.1136C18.8166 10.6499 18.582 11.0774 18.2193 11.3905C17.8567 11.7058 17.4211 11.8628 16.9134 11.8628C16.4929 11.8629 16.1619 11.7495 15.9188 11.5215ZM17.6948 10.8577C17.8591 10.6818 17.9767 10.4148 18.0484 10.0593C18.0592 10.0037 18.0687 9.94588 18.0747 9.88803C18.0806 9.83133 18.083 9.77818 18.083 9.72974C18.083 9.52301 18.0298 9.36243 17.9229 9.24902C17.8167 9.13446 17.6656 9.07776 17.4703 9.07776C17.2122 9.07776 17.0018 9.16739 16.8371 9.34704C16.6709 9.52669 16.5531 9.79827 16.479 10.1597C16.4689 10.2153 16.4605 10.2709 16.4528 10.3251C16.4469 10.3807 16.4451 10.4326 16.4463 10.4799C16.4463 10.6855 16.4995 10.8438 16.6064 10.9559C16.7127 11.0682 16.8632 11.1236 17.0609 11.1236C17.3203 11.1235 17.5304 11.0348 17.6948 10.8577Z" fill="white"/>
<path d="M26.7653 0.00480638L23.0234 0.00366211L26.7439 0.0060778C26.7509 0.0060778 26.758 0.00480638 26.7653 0.00480638Z" fill="#E02F41"/>
<path d="M23.0233 0.00355996L16.3718 0C16.355 0 16.3377 0.00114427 16.3203 0.00228855L23.0233 0.00355996Z" fill="#2E4F7D"/>
<path d="M25.024 14.1368L25.2487 13.3548H26.3849L26.3359 13.6419C26.3359 13.6419 26.9164 13.3548 27.3346 13.3548H28.7395L28.5163 14.1368H28.2952L27.2355 17.8246H27.4565L27.2463 18.557H27.0252L26.9333 18.8747H25.8329L25.9247 18.557H23.754L23.9655 17.8246H24.183L25.2438 14.1368H25.024ZM26.2499 14.1368L25.9608 15.1348C25.9608 15.1348 26.4557 14.947 26.8821 14.8939C26.9762 14.5455 27.0993 14.1368 27.0993 14.1368H26.2499ZM25.8269 15.6027L25.5367 16.6482C25.5367 16.6482 26.085 16.3812 26.4613 16.3588C26.57 15.9548 26.6788 15.6028 26.6788 15.6028H25.8269V15.6027ZM26.0395 17.8246L26.2568 17.0662H25.4089L25.1901 17.8246H26.0395ZM28.7873 13.3064H29.8556L29.901 13.6961C29.8938 13.7953 29.9536 13.8427 30.0802 13.8427H30.269L30.078 14.5028H29.293C28.9933 14.5181 28.8392 14.4048 28.8248 14.1603L28.7873 13.3064ZM28.4743 14.7228H31.9342L31.7311 15.4316H30.6296L30.4407 16.0905H31.5413L31.3369 16.7981H30.1112L29.834 17.2128H30.434L30.5725 18.0432C30.589 18.1258 30.663 18.166 30.7898 18.166H30.976L30.7803 18.8498H30.1207C29.7789 18.8664 29.6024 18.753 29.5878 18.5085L29.4289 17.7501L28.883 18.557C28.7539 18.7849 28.5555 18.8912 28.288 18.8747H27.2808L27.4767 18.1907H27.791C27.9201 18.1907 28.0275 18.1341 28.1242 18.0194L28.9787 16.7981H27.8771L28.0813 16.0905H29.2761L29.4661 15.4316H28.2703L28.4743 14.7228ZM10.2602 8.42326H11.1007L11.0046 8.90754L11.1252 8.76934C11.3977 8.48111 11.7285 8.3382 12.1192 8.3382C12.4729 8.3382 12.7279 8.43979 12.8881 8.64411C13.0457 8.84842 13.0888 9.1308 13.0141 9.49341L12.551 11.7779H11.6873L12.1053 9.70727C12.1484 9.49341 12.1364 9.33398 12.0701 9.23112C12.0045 9.12839 11.879 9.07766 11.6979 9.07766C11.4757 9.07766 11.2887 9.14606 11.1364 9.28198C10.9835 9.41903 10.8825 9.60924 10.8329 9.85132L10.4476 11.7779H9.58203L10.2602 8.42326ZM19.8986 8.42326H20.7399L20.6443 8.90754L20.7635 8.76934C21.0363 8.48111 21.3683 8.3382 21.7578 8.3382C22.1114 8.3382 22.3668 8.43979 22.5259 8.64411C22.6827 8.84842 22.7278 9.1308 22.6514 9.49341L22.1901 11.7779H21.3252L21.7435 9.70727C21.7865 9.49341 21.7744 9.33398 21.7087 9.23112C21.6405 9.12839 21.5175 9.07766 21.3372 9.07766C21.1148 9.07766 20.9286 9.14606 20.7744 9.28198C20.6215 9.41903 20.52 9.60924 20.4722 9.85132L20.085 11.7779H19.2206L19.8986 8.42326ZM24.0564 6.34424H26.4985C26.9678 6.34424 27.3311 6.44938 27.5807 6.65599C27.8292 6.86527 27.9535 7.16519 27.9535 7.55615V7.56798C27.9535 7.64236 27.9486 7.72627 27.9414 7.81718C27.929 7.90948 27.9131 8.0013 27.8937 8.09244C27.7861 8.60978 27.5365 9.02566 27.1507 9.34097C26.7634 9.65514 26.3048 9.81343 25.7768 9.81343H24.4672L24.0622 11.7778H22.9284L24.0564 6.34424ZM24.6668 8.86864H25.7527C26.0358 8.86864 26.2604 8.80354 26.4244 8.67487C26.5869 8.54493 26.6945 8.34647 26.7539 8.07718C26.7634 8.02747 26.7694 7.98259 26.7766 7.94127C26.7802 7.90236 26.785 7.8632 26.785 7.82557C26.785 7.63295 26.7158 7.4936 26.577 7.40613C26.4385 7.31738 26.2211 7.27504 25.92 7.27504H24.9978L24.6668 8.86864ZM33.0287 12.4264C32.6701 13.18 32.3286 13.6193 32.128 13.8236C31.9271 14.0258 31.5292 14.4958 30.5711 14.4603L30.6538 13.8853C31.4601 13.6395 31.896 12.5326 32.1447 12.0425L31.8483 8.43267L32.472 8.4244H32.9952L33.0516 10.6888L34.0322 8.4244H35.0252L33.0287 12.4264ZM30.2523 8.69725L29.8579 8.96539C29.4457 8.64652 29.0695 8.4492 28.3432 8.78231C27.3539 9.23582 26.5271 12.7147 29.2512 11.5689L29.4064 11.7508L30.4781 11.778L31.1819 8.61702L30.2523 8.69725ZM29.6428 10.4254C29.4707 10.9274 29.0862 11.2593 28.785 11.1648C28.484 11.0726 28.3763 10.5884 28.551 10.0851C28.723 9.5819 29.1101 9.25121 29.4087 9.34567C29.7098 9.43785 29.8184 9.92213 29.6428 10.4254Z" fill="white"/>
</g>
<defs>
<clipPath id="clip0">
<rect width="38" height="24" fill="white"/>
</clipPath>
</defs>
</svg>
